<svg xmlns="http://www.w3.org/2000/svg" viewBox="0 0 61 61"><path d="M47.004 29.56c.126.3.2.6.2.911 0 .346-.148.649-.443.915-.295.266-.661.388-1.095.4-.449 0-.784-.132-1.004-.392-.221-.262-.331-.62-.331-1.076 0-.525.119-.933.356-1.224.237-.291.578-.435 1.023-.435.292 0 .5.1.8.246.236.2.4.4.5.663l-.006-.008zm-17.1-.927c-.493 0-.851.235-1.075.706-.224.471-.336 1.252-.336 2.342 0 1.1.1 1.9.3 2.3.224.5.6.7 1.1.701.492 0 .853-.237 1.081-.712.228-.474.342-1.249.342-2.326 0-1.072-.114-1.849-.342-2.329-.24-.48-.598-.724-1.086-.72l.016.038zM61 30.5C61 47.3 47.3 61 30.5 61S0 47.3 0 30.5 13.655 0 30.5 0 61 13.7 61 30.5zM39.434 43.788c0-.158.079-.241.241-.241h4.817c.13 0-7.133-5.711-9.706-7.731.189-.025.352-.083.464-.203.14-.151.211-.357.211-.616 0-.256-.069-.458-.207-.606-.138-.148-.34-.222-.606-.222-.262 0-.464.071-.602.2-.138.142-.207.346-.207.612 0 .2 0 .3.1.399.136 1.9.9 13.4.9 13.209l2.891-4.095.242-.242.24.24 3.853 6.987h.242l.724-.482.242-.242-3.847-6.997.008.03zM39.213 29.1c-.029.361-.044.85-.044 1.467v5.166h1.286v-8.001h-1.072l-2.353 1.849.646.815a87.927 87.927 0 001.228-1.007c.12-.107.216-.208.317-.297l-.008-.036zm14.258 9.23V23.985a1.868 1.868 0 00-1.865-1.865H7.161a1.866 1.866 0 00-1.864 1.865V38.33c0 1 .8 1.9 1.9 1.865h25.359l-.098-1.38H7.161a.486.486 0 01-.484-.485V23.985c0-.266.218-.484.484-.484h44.445c.267 0 .5.2.5.486v14.345a.486.486 0 01-.485.486H41.277c.736.6 1.3 1 1.7 1.381h8.621c1.028 0 1.871-.83 1.871-1.865l.002-.004zm-6.224-6.468c-.039 1-.273 1.733-.7 2.196-.425.467-1.074.7-1.942.7-.327 0-.655-.045-.98-.137V35.7c.211.1.6.1 1 .081 1.277 0 2.235-.388 2.869-1.166.636-.779.954-1.954.954-3.532 0-.738-.114-1.37-.344-1.897s-.557-.929-.98-1.208c-.423-.277-.919-.417-1.488-.417-.809 0-1.45.246-1.917.7-.468.494-.704 1.159-.704 1.995 0 .8.2 1.4.6 1.818.405.4 1 .7 1.7.7.409 0 .765-.073 1.07-.22s.565-.384.781-.712h.067v.01l.014.01zm-15.312-3.253c-.46-.7-1.137-1.05-2.031-1.05-.916 0-1.597.334-2.044 1.004-.447.669-.67 1.71-.67 3.131 0 1.3.2 2.4.7 3.1.46.7 1.1 1 2 1.046.919 0 1.602-.338 2.05-1.013.445-.675.669-1.708.669-3.098-.01-1.357-.244-2.394-.691-3.089l.017-.031zm-10.259-.378v1.363l3.956-1.989-3.955-1.994-.004 1.362H10.795v8.711h9.374v-6.2h-1.352v4.941h-6.665v-6.194h9.528-.004zm-3.75 2.04l-4.706-.408 1.381 3.047h2.401l.924-2.61v-.029zm-1.274 2.725a.385.385 0 00-.396.374c0 .2.2.4.4.366s.398-.166.398-.367c.01-.205-.162-.367-.386-.373h-.016zm-1.95 0c-.22 0-.399.167-.399.366 0 .2.2.4.4.4.22 0 .396-.167.396-.368-.008-.199-.181-.362-.405-.366l.008-.032zM12.905 29.4c-.148 0-.266.11-.266.25 0 .1.1.2.3.248.15 0 .266-.112.266-.25.002-.146-.118-.248-.26-.25l-.04-.019z" fill="#606060"/></svg>