<svg xmlns="http://www.w3.org/2000/svg" viewBox="0 0 61 61"><path d="M45.664 37.478H15.336V25.325h30.329l-.001 12.153zM61 30.5C61 47.3 47.3 61 30.5 61S0 47.3 0 30.5 13.655 0 30.5 0 61 13.7 61 30.5zm-46.921-5.729v13.261c0 .4.2.7.5.704h31.924c.254 0 .46-.315.46-.701V24.772c0-.388-.206-.701-.46-.701H14.538c-.254.008-.468.313-.468.699l.009.001zM43.12 19.25v-2.711H14.079v2.711H43.12zM14.118 50.064h29.33v-2.712h-29.33v2.712zm25.397 8.134h-18.03c2.849.9 5.9 1.4 9 1.356s6.173-.465 9.015-1.356h.015zm7.446-5.423H14.118v2c.385.2.8.5 1.2.712h30.419a29.36 29.36 0 001.251-.762v-1.95h-.027zm0-10.845H14.118v2.712h32.843L47 41.93zm4.147-28.319a2.107 2.107 0 00-2.096-2.113H11.988a2.11 2.11 0 00-2.097 2.115v37.924c.409.4.8.7 1.3 1.094v-39.02c0-.472.376-.856.84-.856h37.024c.463 0 .8.4.8.856v39.018c.429-.353.848-.719 1.257-1.094V13.611h-.004z" fill="#606060"/></svg>