<svg xmlns="http://www.w3.org/2000/svg" viewBox="0 0 61 61"><path d="M16.739 35.541v-.977c0-.149.11-.27.245-.27H27.21c.134 0 .2.1.2.27v.977c0 .148-.11.268-.246.268H16.982a.27.27 0 01-.25-.27l.007.002zm.308 2.652h12.856c.17 0 .308-.121.308-.27v-.977c0-.149-.136-.27-.307-.27H17.048c-.169 0-.307.121-.307.27v.977c0 .1.1.3.3.27h.006zM61 30.5C61 47.3 47.3 61 30.5 61S0 47.3 0 30.5 13.655 0 30.5 0 61 13.7 61 30.5zm-14.238-2.418H14.238v10.22c0 1.2 1 2.3 2.3 2.249h28.026a2.25 2.25 0 002.249-2.249v-10.22h-.051zm0-5.384a2.25 2.25 0 00-2.249-2.249H16.487a2.25 2.25 0 00-2.249 2.249v2.065h32.525l-.001-2.063c.001 0 .038 0 .038-.002z" fill="#606060"/></svg>